<svg width="60" height="63" viewBox="0 0 60 63" fill="none" xmlns="http://www.w3.org/2000/svg">
<path d="M56.5631 40.0663C55.6792 40.0663 54.9921 40.4592 54.5011 41.0483L52.8315 40.4592C59.018 36.8257 59.5089 27.6934 53.4206 23.4702L55.3845 22.5863C55.8755 23.0773 56.5632 23.4702 57.3485 23.4702C58.8215 23.4702 60 22.2915 60 20.8186C60 19.3456 58.8213 18.1671 57.3485 18.1671C55.9736 18.1671 54.7951 19.3458 54.6969 20.7205L52.9293 21.5062C53.3221 19.4443 53.1255 17.2837 52.1435 15.4179C51.1616 13.5521 49.5901 12.0791 47.7242 11.2934L53.0268 8.3475C53.3225 8.15084 53.5192 7.75795 53.5192 7.4632V5.10644C54.5011 4.71357 55.1888 3.7316 55.1888 2.65154C55.1888 1.17855 54.0101 0 52.5372 0C51.0643 0 49.8857 1.17867 49.8857 2.65154C49.8857 3.7316 50.5729 4.71351 51.5553 5.10644V6.87409L46.3507 9.72181C46.4489 2.45479 38.0037 -2.25931 31.8176 2.35664H24.7472C24.2563 2.35664 23.8634 2.65141 23.7653 3.14239L22.8814 8.24883C20.8195 8.83791 18.8551 9.62367 17.0874 10.6056L12.8649 7.65973C12.472 7.36496 11.981 7.46352 11.5882 7.75783L5.40119 14.0425C5.10642 14.3372 5.00832 14.9263 5.30309 15.3192L8.24895 19.5417C7.16889 21.4075 6.38315 23.3715 5.89219 25.3358L0.785751 26.2196C0.294771 26.3177 0 26.7106 0 27.2016V35.9416C0 36.4326 0.294771 36.8254 0.785751 36.9235L5.79405 37.8074C6.28503 39.7713 7.16889 41.7353 8.1508 43.6014L5.20494 47.824C5.00828 48.1183 5.10639 48.7074 5.40115 49.0022L11.6863 55.1887C11.981 55.4835 12.5701 55.5816 12.963 55.2868L17.1855 52.3409C18.9532 53.3229 20.9171 54.2067 22.9795 54.6977L23.8634 59.8041C23.9615 60.2951 24.3544 60.5899 24.8454 60.5899H32.7996C37.8079 63.5357 44.1912 60.9827 45.9589 55.5816L48.4138 56.9564V57.7422C47.4319 58.135 46.7442 59.117 46.7442 60.1971C46.7442 61.6701 47.9229 62.8486 49.3958 62.8486C50.8686 62.8486 52.0473 61.6699 52.0473 60.1971C52.0473 59.117 51.3601 58.1351 50.3777 57.7422V56.4655C50.3777 56.0726 50.1815 55.7783 49.8867 55.5816L47.628 54.3049C52.3416 52.341 54.404 46.9398 52.5382 42.4222L54.1092 42.9132C54.2073 44.1899 55.3859 45.2699 56.7608 45.2699C58.2338 45.2699 59.4123 44.0913 59.4123 42.6184C59.2157 41.244 58.0375 40.0658 56.5641 40.0658L56.5631 40.0663ZM52.5372 1.96451C52.93 1.96451 53.2244 2.25928 53.2244 2.6517C53.2244 3.04457 52.9296 3.33889 52.5372 3.33889C52.1443 3.33889 51.85 3.04412 51.85 2.6517C51.8495 2.25928 52.1443 1.96451 52.5372 1.96451ZM49.2965 60.8851C48.9037 60.8851 48.6093 60.5904 48.6093 60.198C48.6093 59.8051 48.9041 59.5108 49.2965 59.5108C49.6894 59.5108 49.9837 59.8055 49.9837 60.198C49.9837 60.5904 49.6894 60.8851 49.2965 60.8851ZM57.2508 20.1318C57.6437 20.1318 57.938 20.4265 57.938 20.819C57.938 21.2118 57.6432 21.5062 57.2508 21.5062C56.8579 21.5062 56.5636 21.2114 56.5636 20.819C56.6617 20.4261 56.956 20.1318 57.2508 20.1318ZM28.1834 41.2445C23.2732 40.7536 19.4434 36.6291 19.4434 31.5226C19.4434 26.5143 23.2732 22.2917 28.1834 21.8007V41.2445ZM25.5319 58.7243L24.648 53.8141C24.5499 53.4212 24.2552 53.1269 23.8623 53.0283C21.5055 52.4392 19.3449 51.5553 17.4791 50.3768C17.1844 50.1806 16.6934 50.1806 16.3991 50.3768L12.3727 53.2245L7.36475 48.2165L10.2125 44.1902C10.4087 43.8954 10.4087 43.4044 10.2125 43.1101C8.93577 41.1462 8.05189 38.9856 7.56093 36.727C7.46282 36.3341 7.16806 36.0398 6.77518 35.9412L1.96352 35.0574V27.987L6.87379 27.1031C7.26666 27.005 7.56098 26.7103 7.65954 26.3174C8.15052 24.1568 9.03438 21.9967 10.3111 19.9342C10.5073 19.6395 10.5073 19.1485 10.3111 18.8542L7.36475 14.8283L12.4712 9.72183L16.4976 12.5695C16.7923 12.7658 17.2833 12.7658 17.5776 12.5695C19.4434 11.3909 21.604 10.5076 23.9608 9.918C24.3536 9.8199 24.648 9.52513 24.7465 9.13225L25.6304 4.22199H29.9511C27.3977 7.75741 28.4781 10.5071 28.1834 19.7377C22.1931 20.2287 17.4796 25.2371 17.4796 31.4237C17.4796 37.6107 22.0951 42.7171 28.1834 43.208C28.5763 50.5732 27.0047 54.894 30.344 58.7238L25.5319 58.7243ZM46.3507 52.636C46.2526 47.7257 42.2262 43.6998 37.2179 43.6998C36.6288 43.6998 36.2359 44.0927 36.2359 44.6818C36.2359 45.2708 36.6288 45.6637 37.2179 45.6637C42.1281 45.6637 45.6631 50.574 43.8953 55.2875C42.3243 59.51 37.2179 61.2778 33.3877 58.8229C29.2631 56.1714 30.147 57.7429 30.147 9.72258C30.147 3.04513 38.6903 0.000659604 42.9128 5.30327C46.5464 9.91876 43.2076 16.7928 37.3154 16.7928C36.7263 16.7928 36.3335 17.1857 36.3335 17.7748C36.3335 18.3639 36.7263 18.7568 37.3154 18.7568C41.2433 18.7568 44.6806 16.2034 45.8587 12.6684C47.8226 13.1594 49.4922 14.4361 50.376 16.302C51.358 18.1678 51.4561 20.2299 50.6708 22.096C47.234 21.016 43.3056 21.8012 40.5559 24.5509C40.1631 24.9438 40.1631 25.5329 40.5559 25.9258C40.9488 26.3186 41.5379 26.3186 41.9308 25.9258C47.1354 20.7212 56.2683 24.6491 55.7776 32.2109C55.3847 39.2812 46.7429 42.3257 41.9308 37.4155C41.5379 37.0226 40.9488 37.0226 40.5559 37.4155C40.1631 37.8083 40.1631 38.3974 40.5559 38.7903C42.5199 40.7542 45.0733 41.7361 47.7245 41.7361C48.4117 41.7361 49.0993 41.638 49.7864 41.5399C52.6351 45.5659 50.8674 51.1633 46.3501 52.6362L46.3507 52.636ZM56.5636 43.307C56.1707 43.307 55.8764 43.0122 55.8764 42.6198C55.8764 42.2269 56.1711 41.9326 56.5636 41.9326C56.9564 41.9326 57.2507 42.2274 57.2507 42.6198C57.2512 43.0122 56.9564 43.307 56.5636 43.307Z" fill="#BDFE8A"/>
</svg>
