<svg width="60" height="60" viewBox="0 0 60 60" fill="none" xmlns="http://www.w3.org/2000/svg">
<path d="M24.5309 41.8192C24.6392 41.8747 24.7563 41.9019 24.8729 41.9019C25.0638 41.9019 25.2531 41.8287 25.3964 41.6891L38.5128 28.8947C38.7308 28.6819 38.7983 28.3587 38.6843 28.0763C38.5703 27.794 38.2963 27.6089 37.992 27.6083L32.97 27.5947L36.3139 19.7229C36.4127 19.4913 36.3886 19.2257 36.2495 19.016C36.1105 18.8063 35.8762 18.6797 35.6242 18.6797H24.3953C24.0141 18.6797 23.6941 18.9658 23.6507 19.3444L22.2775 31.3481C22.2535 31.5599 22.3199 31.7717 22.4611 31.9306C22.6023 32.0901 22.8046 32.1816 23.0174 32.1827L25.4588 32.1978L24.1307 41.0407C24.0836 41.3591 24.2447 41.6724 24.5307 41.8193L24.5309 41.8192ZM23.8622 30.6888L25.0648 20.1795H34.4907L31.1482 28.0481C31.0494 28.2792 31.0735 28.5443 31.212 28.754C31.3506 28.9637 31.5849 29.0902 31.8359 29.0907L36.1529 29.1022L25.9459 39.0583L27.0712 31.5647C27.1036 31.3497 27.0403 31.1312 26.8991 30.9659C26.7579 30.8007 26.5514 30.7055 26.3339 30.704L23.8622 30.6888Z" fill="#BDFE8A"/>
<path d="M16.3116 41.763C16.0083 42.0454 15.9916 42.5197 16.2745 42.8224C19.9091 46.7259 24.9333 48.8107 30.0503 48.8107C32.6162 48.8107 35.2056 48.2862 37.6533 47.2038C38.0319 47.0365 38.2029 46.5936 38.0361 46.215C37.8677 45.8364 37.4264 45.6638 37.0473 45.8327C30.3018 48.8143 22.3946 47.1949 17.3721 41.8006C17.0903 41.4974 16.6155 41.4817 16.3127 41.763L16.3116 41.763Z" fill="#BDFE8A"/>
<path d="M47.5742 34.4247C47.6259 34.4357 47.6772 34.4409 47.7284 34.4409C48.0756 34.4409 48.3873 34.1988 48.461 33.8453C49.2731 29.9784 48.8542 26.0179 47.251 22.3912C45.219 17.7954 41.519 14.2658 36.8322 12.4529C32.1454 10.6406 27.0341 10.7598 22.4379 12.7928C22.0593 12.9601 21.8883 13.403 22.0551 13.7816C22.2235 14.1597 22.6627 14.3312 23.0439 14.1639C27.2737 12.2934 31.9787 12.1831 36.2911 13.8507C40.6051 15.5198 44.0097 18.768 45.8796 22.9973C47.3552 26.335 47.7411 29.9796 46.9944 33.5374C46.9097 33.9426 47.1686 34.34 47.5743 34.4247L47.5742 34.4247Z" fill="#BDFE8A"/>
<path d="M9.3361 39.1554C9.16825 38.7773 8.72848 38.6058 8.34729 38.7731C7.96872 38.9405 7.79772 39.3834 7.96453 39.7619C10.5686 45.6498 15.3087 50.1719 21.3132 52.4946C24.1359 53.5864 27.0782 54.1308 30.017 54.1308C33.329 54.1308 36.6353 53.4385 39.7555 52.059C45.3025 49.6066 49.6891 45.1954 52.1071 39.638C52.2723 39.2584 52.0982 38.8165 51.7191 38.6513C51.3342 38.4839 50.8976 38.6602 50.7324 39.0398C48.465 44.2511 44.3519 48.3877 39.1496 50.6875C33.6261 53.1294 27.4841 53.2737 21.8545 51.0959C16.2229 48.9175 11.7771 44.6773 9.33615 39.1554L9.3361 39.1554Z" fill="#BDFE8A"/>
<path d="M38.7042 7.53693C32.6993 5.21373 26.1499 5.36901 20.2619 7.97198C14.5696 10.4893 10.1228 15.0406 7.74303 20.7878C7.58511 21.17 7.76656 21.6087 8.1488 21.7672C8.2424 21.8059 8.33966 21.8247 8.43587 21.8247C8.72921 21.8247 9.00896 21.65 9.12819 21.3614C11.3605 15.9718 15.5301 11.7034 20.8684 9.34303C32.2671 4.30336 45.6411 9.47585 50.681 20.8751C50.8494 21.2536 51.2902 21.4267 51.6698 21.2573C52.0484 21.09 52.2194 20.6471 52.0526 20.2685C49.448 14.3812 44.7079 9.85905 38.7039 7.53693L38.7042 7.53693Z" fill="#BDFE8A"/>
<path d="M17.8832 2.59124C13.5039 4.52757 9.76147 7.37952 6.76106 11.068C1.30306 17.7757 -1.003 26.4957 0.432417 34.9907C0.494642 35.3567 0.811517 35.6155 1.17127 35.6155C1.21206 35.6155 1.25494 35.6124 1.29729 35.6051C1.70516 35.536 1.98021 35.1491 1.9117 34.7412C0.546964 26.6708 2.73893 18.3858 7.92403 12.014C10.7749 8.5105 14.3296 5.80192 18.4898 3.96183C31.3062 -1.70486 46.1674 2.67811 53.8284 14.3837C54.0558 14.7299 54.5202 14.8272 54.8663 14.6002C55.2125 14.3733 55.3097 13.9089 55.0828 13.5623C47.0181 1.24004 31.373 -3.37409 17.8836 2.59071L17.8832 2.59124Z" fill="#BDFE8A"/>
<path d="M59.2347 29.7957C59.2436 29.7957 59.2515 29.7957 59.2603 29.7952C59.674 29.7816 59.9982 29.4349 59.9846 29.0213C59.8586 25.1795 58.9999 21.4345 57.4318 17.8898C57.264 17.5107 56.82 17.3386 56.4435 17.5075C56.0649 17.6754 55.8939 18.1177 56.0613 18.4963C57.55 21.8643 58.3663 25.4221 58.4865 29.0704C58.4995 29.4762 58.8321 29.7957 59.2347 29.7957L59.2347 29.7957Z" fill="#BDFE8A"/>
<path d="M41.5274 56.069C39.5216 56.9553 37.4227 57.6106 35.2888 58.0147C34.8825 58.0916 34.6153 58.4837 34.6921 58.8906C34.7601 59.2503 35.0749 59.5008 35.4279 59.5008C35.4739 59.5008 35.5209 59.4966 35.5685 59.4877C37.8143 59.0621 40.0231 58.3734 42.1336 57.44C50.8566 53.5826 57.0901 46.0339 59.2346 36.7287C59.3277 36.3256 59.0756 35.9229 58.6725 35.8298C58.2719 35.7404 57.8667 35.9888 57.7736 36.392C55.7363 45.2327 49.8145 52.4047 41.528 56.0698L41.5274 56.069Z" fill="#BDFE8A"/>
<path d="M2.96692 41.1526C2.58835 41.32 2.41735 41.7629 2.58416 42.1415C6.70781 51.4674 15.1882 58.0042 25.2673 59.6266C26.6064 59.8421 27.9706 59.9676 29.3234 59.9995C29.3292 60 29.3349 60 29.3412 60C29.7475 60 30.0811 59.6763 30.0911 59.2679C30.1005 58.8543 29.7731 58.5108 29.359 58.5014C28.0742 58.4705 26.778 58.3518 25.5063 58.1468C15.9293 56.6043 7.8725 50.3943 3.95566 41.5344C3.78729 41.1564 3.34596 40.9843 2.96686 41.1522L2.96692 41.1526Z" fill="#BDFE8A"/>
</svg>
