<svg width="60" height="62" viewBox="0 0 60 62" fill="none" xmlns="http://www.w3.org/2000/svg">
<path d="M17.4605 36.6545C14.1169 36.6545 11.4546 33.9301 11.4546 30.6486C11.4546 27.367 14.179 24.6428 17.4605 24.6428C19.3179 24.6428 20.9896 25.4478 22.166 26.8717C22.5994 27.429 22.5375 28.1719 21.9802 28.6054C21.4229 29.0388 20.68 28.9769 20.2465 28.4196C19.5654 27.5527 18.5748 27.1194 17.4602 27.1194C15.479 27.1194 13.9311 28.7292 13.9311 30.6486C13.9311 32.6298 15.5409 34.1777 17.4602 34.1777C18.389 34.1777 19.3177 33.8062 19.9369 33.1252C20.4323 32.6298 21.1752 32.6298 21.6706 33.1252C22.166 33.6206 22.166 34.3635 21.6706 34.859C20.6183 36.0352 19.0704 36.6544 17.4604 36.6544L17.4605 36.6545Z" fill="#BDFE8A"/>
<path d="M29.1627 36.6545C25.9431 36.6545 23.3425 34.0541 23.3425 30.8343C23.3425 27.6148 25.9429 25.0142 29.1627 25.0142C32.3822 25.0142 34.9828 27.6146 34.9828 30.8343C34.9828 34.0541 32.3824 36.6545 29.1627 36.6545ZM29.1627 27.4909C27.3052 27.4909 25.8191 28.9769 25.8191 30.8344C25.8191 32.6919 27.3052 34.1779 29.1627 34.1779C31.0201 34.1779 32.5062 32.6919 32.5062 30.8344C32.5062 28.9769 31.0201 27.4909 29.1627 27.4909Z" fill="#BDFE8A"/>
<path d="M44.1462 36.6545H37.4593C36.7782 36.6545 36.2209 36.0972 36.2209 35.4162C36.2209 33.1873 38.4499 31.8871 40.3692 30.7725C41.4217 30.1533 43.0317 29.2246 43.0317 28.6673C43.0317 27.7385 41.6697 27.4289 40.8647 27.4289C40.1218 27.4289 38.6976 27.6766 38.6976 28.7291C38.6976 29.4102 38.1403 29.9675 37.4593 29.9675C36.7782 29.9675 36.2209 29.4102 36.2209 28.7291C36.2828 26.5621 38.2022 25.0142 40.9265 25.0142C43.589 25.0142 45.5702 26.6239 45.5702 28.7291C45.5702 30.7725 43.589 31.8868 41.6694 33.0014C40.9884 33.3729 40.2452 33.8064 39.6882 34.2397H44.2082C44.8892 34.2397 45.4465 34.797 45.4465 35.478C45.3846 36.0974 44.8273 36.6545 44.1463 36.6545H44.1462Z" fill="#BDFE8A"/>
<path d="M57.8298 44.9513C58.0775 44.2084 58.2012 43.4034 58.2012 42.5983V19.3179C58.2012 16.5935 56.7152 14.1169 54.3625 12.8167L32.6919 0.928743C30.4629 -0.309581 27.8004 -0.309581 25.5715 0.928743L3.90082 12.8167C1.48604 14.117 0 16.5937 0 19.3179V42.5983C0 45.3227 1.48604 47.7993 3.8387 49.0995L25.5094 60.9874C26.624 61.6066 27.8623 61.9162 29.1006 61.9162C30.3389 61.9162 31.5773 61.6066 32.6919 60.9874L40.4314 56.7152C42.2889 59.811 45.6323 61.9161 49.4711 61.9161C55.2913 61.9161 59.9969 57.2106 59.9969 51.3904C60.0588 48.9758 59.1919 46.7469 57.8298 44.9511L57.8298 44.9513ZM31.5154 58.8205C30.0293 59.6255 28.2337 59.6255 26.7479 58.8205L5.07727 46.9326C3.4675 46.0657 2.53876 44.3941 2.53876 42.5984L2.53856 19.318C2.53856 17.5223 3.52917 15.8507 5.07707 14.9838L26.6858 3.09591C27.4287 2.66258 28.2337 2.47675 29.1006 2.47675C29.9675 2.47675 30.7104 2.66258 31.4535 3.09591L53.1242 14.9838C54.734 15.8507 55.7246 17.5223 55.7246 19.318V42.5984V42.908C53.9908 41.6078 51.8237 40.8647 49.5329 40.8647C43.7128 40.8647 39.0072 45.5703 39.0072 51.3904C39.0072 52.4429 39.193 53.4956 39.4405 54.4244L31.5154 58.8205ZM55.3531 52.2574L50.5857 57.0248C50.5238 57.0867 50.5238 57.1486 50.4619 57.2106C50.1521 57.4583 49.8426 57.5821 49.533 57.5821H49.2853C49.2234 57.5821 49.2234 57.5821 49.1615 57.5202C49.0996 57.5202 49.0996 57.5202 49.0378 57.4583C48.9759 57.4583 48.9759 57.3965 48.914 57.3965C48.914 57.3965 48.8521 57.3965 48.8521 57.3346C48.7284 57.2727 48.6044 57.1488 48.5426 57.025L43.7751 52.2576C43.2797 51.7622 43.2797 51.0193 43.7751 50.5238C44.2705 50.0284 45.0134 50.0284 45.5089 50.5238L48.2951 53.31L48.2947 46.4374C48.2947 45.7563 48.852 45.199 49.533 45.199C50.2141 45.199 50.7714 45.7563 50.7714 46.4374V53.372L53.6194 50.5239C54.1149 50.0285 54.8578 50.0285 55.3532 50.5239C55.8484 51.0193 55.7865 51.8241 55.3532 52.2576L55.3531 52.2574Z" fill="#BDFE8A"/>
</svg>
