<svg width="380" height="60" viewBox="0 0 380 60" fill="none" xmlns="http://www.w3.org/2000/svg">
<path d="M7.51618 32.9577C6.21127 31.6528 5.34721 30.1304 4.924 28.3906C4.51254 26.6624 4.54193 24.9284 5.01217 23.1886C5.50591 21.4487 6.43463 19.8969 7.79832 18.5332L19.1016 7.30043C20.4418 5.96026 21.9583 5.05505 23.6512 4.58481C25.3558 4.10282 27.0722 4.06755 28.8003 4.47901C30.5519 4.89047 32.0861 5.75453 33.4027 7.07119C34.7429 8.41137 35.6128 9.92788 36.0126 11.6207C36.424 13.3253 36.3887 15.0417 35.9067 16.7698C35.4483 18.498 34.5431 20.038 33.1911 21.3899L32.2054 22.589C32.1113 22.6831 32.0173 22.6831 31.9232 22.589L27.8674 18.5332C27.7734 18.4392 27.7734 18.3451 27.8674 18.2511L28.8532 17.052C29.6526 16.2526 30.0817 15.3062 30.1405 14.2129C30.1992 13.1196 29.8407 12.185 29.0648 11.4091C28.2066 10.5509 27.2544 10.1865 26.2081 10.3158C25.1618 10.4451 24.2507 10.8977 23.4749 11.6736L12.2068 22.9417C11.3251 23.8234 10.8607 24.805 10.8137 25.8866C10.7784 26.9563 11.1311 27.8616 11.8717 28.6022C12.6476 29.3781 13.5999 29.719 14.7284 29.6249C15.8688 29.5191 16.821 29.0842 17.5851 28.32L19.568 26.6568C19.6621 26.5627 19.7932 26.882 19.8872 26.976L23.6336 30.7359C23.7276 30.8299 23.7276 30.924 23.6336 31.018L21.9583 32.6932C20.6064 34.0452 19.0546 34.9621 17.303 35.4441C15.5514 35.9026 13.8115 35.9379 12.0834 35.5499C10.367 35.1502 8.8446 34.2862 7.51618 32.9577Z" fill="#BDFE8A"/>
<path d="M7.18508 52.9288C8.48998 54.2337 10.0124 55.0977 11.7523 55.521C13.4804 55.9324 15.2144 55.903 16.9543 55.4328C18.6941 54.939 20.2459 54.0103 21.6096 52.6466L32.8424 41.3433C34.1826 40.0031 35.0878 38.4866 35.558 36.7938C36.04 35.0891 36.0753 33.3728 35.6638 31.6447C35.2524 29.893 34.3883 28.3589 33.0716 27.0422C31.7315 25.702 30.2149 24.8321 28.5221 24.4324C26.8175 24.0209 25.1011 24.0562 23.373 24.5382C21.6449 24.9967 20.1048 25.9019 18.7529 27.2538L17.0953 28.9114C17.0013 29.0055 17.0013 29.0995 17.0953 29.1935L21.1511 33.2493C21.2452 33.3434 21.3392 33.3434 21.4333 33.2493L23.0908 31.5918C23.8902 30.7924 24.8366 30.3633 25.9299 30.3045C27.0232 30.2457 27.9578 30.6043 28.7337 31.3802C29.5919 32.2383 29.9563 33.1906 29.827 34.2368C29.6977 35.2831 29.2451 36.1942 28.4692 36.9701L17.2011 48.2382C16.3194 49.1198 15.3378 49.5842 14.2563 49.6312C13.1865 49.6665 12.2813 49.3138 11.5406 48.5732C10.7648 47.7973 10.4238 46.8451 10.5179 45.7165C10.6237 44.5762 11.0587 43.624 11.8228 42.8598L12.8646 41.6254C12.9586 41.5314 12.9586 41.4373 12.8646 41.3433L8.77354 37.2522C8.67949 37.1582 8.58544 37.1582 8.49139 37.2522L7.44958 38.4866C6.09765 39.8385 5.18069 41.3903 4.6987 43.142C4.24021 44.8936 4.20495 46.6335 4.59289 48.3616C4.99259 50.078 5.85666 51.6004 7.18508 52.9288Z" fill="#BDFE8A"/>
<path d="M65.971 35.996C66.9097 36.316 67.9337 36.572 69.043 36.764C70.1737 36.9347 71.2937 37.02 72.403 37.02C73.9177 37.02 75.0377 36.956 75.763 36.828C76.5097 36.6787 77.0003 36.4547 77.235 36.156C77.4697 35.8573 77.587 35.4733 77.587 35.004C77.587 34.5987 77.5017 34.2787 77.331 34.044C77.1603 33.8093 76.8297 33.628 76.339 33.5C75.8483 33.3507 75.123 33.2333 74.163 33.148L72.051 32.956C70.4723 32.8067 69.2243 32.476 68.307 31.964C67.411 31.452 66.771 30.7693 66.387 29.916C66.0243 29.0413 65.843 27.996 65.843 26.78C65.843 25.3293 66.131 24.156 66.707 23.26C67.3043 22.364 68.2643 21.7133 69.587 21.308C70.9097 20.8813 72.6697 20.668 74.867 20.668C77.7257 20.668 80.083 21.0413 81.939 21.788L81.843 26.14L81.747 26.268C79.635 25.5213 77.427 25.148 75.123 25.148C74.0137 25.148 73.1603 25.212 72.563 25.34C71.9657 25.4467 71.5497 25.628 71.315 25.884C71.0803 26.14 70.963 26.5027 70.963 26.972C70.963 27.4413 71.0377 27.7933 71.187 28.028C71.3577 28.2627 71.6883 28.444 72.179 28.572C72.6697 28.6787 73.3843 28.7853 74.323 28.892L76.339 29.116C78.0457 29.308 79.3577 29.6493 80.275 30.14C81.1923 30.6307 81.8217 31.292 82.163 32.124C82.5257 32.9347 82.707 33.9267 82.707 35.1C82.707 36.5293 82.3977 37.724 81.779 38.684C81.1817 39.6227 80.2003 40.3267 78.835 40.796C77.4697 41.2653 75.6457 41.5 73.363 41.5C71.8697 41.5 70.5257 41.4253 69.331 41.276C68.1363 41.1053 66.9737 40.8813 65.843 40.604V36.092L65.971 35.996ZM95.1685 40.188C94.8058 39.036 94.4325 37.8093 94.0485 36.508C93.6858 35.2067 93.3232 33.916 92.9605 32.636C92.5978 31.356 92.2672 30.1613 91.9685 29.052C91.6698 27.9427 91.4138 26.9827 91.2005 26.172C90.9872 25.3613 90.8378 24.7853 90.7525 24.444L90.6245 24.476C90.6885 24.86 90.7418 25.372 90.7845 26.012C90.8272 26.6307 90.8592 27.292 90.8805 27.996C90.9018 28.6787 90.9125 29.308 90.9125 29.884V41.212H86.0165V20.956H94.5925C94.8912 22.0867 95.2005 23.2813 95.5205 24.54C95.8618 25.7773 96.1925 27.0147 96.5125 28.252C96.8538 29.468 97.1525 30.6307 97.4085 31.74C97.6645 32.828 97.8458 33.7773 97.9525 34.588H98.0165C98.1232 33.7773 98.2938 32.828 98.5285 31.74C98.7845 30.652 99.0725 29.4893 99.3925 28.252C99.7125 27.0147 100.043 25.7773 100.384 24.54C100.726 23.2813 101.035 22.0867 101.312 20.956H109.76V41.212H104.928V29.884C104.928 29.308 104.939 28.6787 104.96 27.996C104.982 27.292 105.014 26.6307 105.056 26.012C105.12 25.372 105.174 24.86 105.216 24.476L105.088 24.444C105.003 24.7853 104.854 25.3613 104.64 26.172C104.427 26.9827 104.16 27.9533 103.84 29.084C103.542 30.1933 103.211 31.388 102.848 32.668C102.486 33.948 102.112 35.2387 101.728 36.54C101.366 37.82 101.014 39.036 100.672 40.188H95.1685ZM132.262 41.116V41.212H126.822C126.672 40.7 126.491 40.1133 126.278 39.452C126.086 38.7907 125.872 38.0867 125.638 37.34H118.726C118.299 38.8333 117.904 40.124 117.542 41.212H112.102V41.148L118.662 20.956H125.702L132.262 41.116ZM122.118 24.604C121.904 25.692 121.595 27.0147 121.19 28.572C120.784 30.1293 120.358 31.7187 119.91 33.34H124.486C124.016 31.7187 123.579 30.1293 123.174 28.572C122.768 27.0147 122.459 25.692 122.246 24.604H122.118ZM139.634 41.212H134.514V20.956H144.178C146.717 20.956 148.562 21.532 149.714 22.684C150.888 23.8147 151.474 25.4893 151.474 27.708C151.474 29.372 151.058 30.8013 150.226 31.996C149.394 33.1693 148.296 33.9053 146.93 34.204L146.898 34.3C147.432 34.6413 148.018 35.2067 148.658 35.996C149.298 36.7853 149.928 37.6493 150.546 38.588C151.186 39.5053 151.752 40.3693 152.242 41.18V41.212H146.29L142.834 36.092C142.536 35.644 142.29 35.324 142.098 35.132C141.928 34.94 141.714 34.8227 141.458 34.78C141.224 34.7373 140.84 34.716 140.306 34.716H139.634V41.212ZM143.346 25.116H139.634V30.556H143.346C144.413 30.556 145.149 30.3427 145.554 29.916C145.981 29.4893 146.194 28.796 146.194 27.836C146.194 26.876 145.981 26.1827 145.554 25.756C145.149 25.3293 144.413 25.116 143.346 25.116ZM159.299 41.212V25.276H153.539V20.956H170.179V25.276H164.419V41.212H159.299ZM191.262 40.188C190.9 39.036 190.526 37.8093 190.142 36.508C189.78 35.2067 189.417 33.916 189.054 32.636C188.692 31.356 188.361 30.1613 188.062 29.052C187.764 27.9427 187.508 26.9827 187.294 26.172C187.081 25.3613 186.932 24.7853 186.846 24.444L186.718 24.476C186.782 24.86 186.836 25.372 186.878 26.012C186.921 26.6307 186.953 27.292 186.974 27.996C186.996 28.6787 187.006 29.308 187.006 29.884V41.212H182.11V20.956H190.686C190.985 22.0867 191.294 23.2813 191.614 24.54C191.956 25.7773 192.286 27.0147 192.606 28.252C192.948 29.468 193.246 30.6307 193.502 31.74C193.758 32.828 193.94 33.7773 194.046 34.588H194.11C194.217 33.7773 194.388 32.828 194.622 31.74C194.878 30.652 195.166 29.4893 195.486 28.252C195.806 27.0147 196.137 25.7773 196.478 24.54C196.82 23.2813 197.129 22.0867 197.406 20.956H205.854V41.212H201.022V29.884C201.022 29.308 201.033 28.6787 201.054 27.996C201.076 27.292 201.108 26.6307 201.15 26.012C201.214 25.372 201.268 24.86 201.31 24.476L201.182 24.444C201.097 24.7853 200.948 25.3613 200.734 26.172C200.521 26.9827 200.254 27.9533 199.934 29.084C199.636 30.1933 199.305 31.388 198.942 32.668C198.58 33.948 198.206 35.2387 197.822 36.54C197.46 37.82 197.108 39.036 196.766 40.188H191.262ZM209.795 41.212V20.956H224.835V25.116H214.915V28.956H223.523V33.116H214.915V37.052H224.835V41.212H209.795ZM231.549 41.212V25.276H225.789V20.956H242.429V25.276H236.669V41.212H231.549ZM263.23 41.116V41.212H257.79C257.641 40.7 257.46 40.1133 257.246 39.452C257.054 38.7907 256.841 38.0867 256.606 37.34H249.694C249.268 38.8333 248.873 40.124 248.51 41.212H243.07V41.148L249.63 20.956H256.67L263.23 41.116ZM253.086 24.604C252.873 25.692 252.564 27.0147 252.158 28.572C251.753 30.1293 251.326 31.7187 250.878 33.34H255.454C254.985 31.7187 254.548 30.1293 254.142 28.572C253.737 27.0147 253.428 25.692 253.214 24.604H253.086ZM280.203 36.86V41.212H265.483V20.956H270.603V36.86H280.203ZM297.172 36.86V41.212H282.452V20.956H287.572V36.86H297.172ZM316.956 20.956V32.892C316.956 34.9827 316.7 36.6573 316.188 37.916C315.698 39.1747 314.834 40.092 313.596 40.668C312.359 41.2227 310.61 41.5 308.348 41.5C306.002 41.5 304.178 41.2227 302.876 40.668C301.596 40.092 300.7 39.1747 300.188 37.916C299.676 36.6573 299.42 34.9827 299.42 32.892V20.956H304.54V32.796C304.54 33.884 304.647 34.7373 304.86 35.356C305.074 35.9747 305.458 36.412 306.012 36.668C306.567 36.9027 307.346 37.02 308.348 37.02C309.287 37.02 310.002 36.9027 310.492 36.668C311.004 36.412 311.356 35.9747 311.548 35.356C311.74 34.7373 311.836 33.884 311.836 32.796V20.956H316.956ZM325.915 41.212H320.795V20.956H330.459C332.998 20.956 334.843 21.532 335.995 22.684C337.169 23.8147 337.755 25.4893 337.755 27.708C337.755 29.372 337.339 30.8013 336.507 31.996C335.675 33.1693 334.577 33.9053 333.211 34.204L333.179 34.3C333.713 34.6413 334.299 35.2067 334.939 35.996C335.579 36.7853 336.209 37.6493 336.827 38.588C337.467 39.5053 338.033 40.3693 338.523 41.18V41.212H332.571L329.115 36.092C328.817 35.644 328.571 35.324 328.379 35.132C328.209 34.94 327.995 34.8227 327.739 34.78C327.505 34.7373 327.121 34.716 326.587 34.716H325.915V41.212ZM329.627 25.116H325.915V30.556H329.627C330.694 30.556 331.43 30.3427 331.835 29.916C332.262 29.4893 332.475 28.796 332.475 27.836C332.475 26.876 332.262 26.1827 331.835 25.756C331.43 25.3293 330.694 25.116 329.627 25.116ZM354.38 35.228C354.38 34.524 354.412 33.884 354.476 33.308L354.412 33.212C353.815 33.2973 353.164 33.3613 352.46 33.404C351.756 33.4253 351.106 33.4253 350.508 33.404V29.244L358.86 29.212V40.092C357.879 40.54 356.759 40.892 355.5 41.148C354.263 41.3827 352.684 41.5 350.764 41.5C348.204 41.5 346.199 41.1587 344.748 40.476C343.298 39.772 342.274 38.652 341.676 37.116C341.079 35.5587 340.78 33.4893 340.78 30.908C340.78 28.8173 341.015 27.1 341.484 25.756C341.975 24.412 342.679 23.3773 343.596 22.652C344.535 21.9053 345.676 21.3933 347.02 21.116C348.364 20.8173 349.9 20.668 351.628 20.668C352.652 20.668 353.676 20.7107 354.7 20.796C355.746 20.8813 356.78 21.0413 357.804 21.276V25.5L357.708 25.564C356.812 25.3507 355.916 25.2013 355.02 25.116C354.146 25.0307 353.26 24.988 352.364 24.988C351.063 24.988 349.922 25.1267 348.94 25.404C347.98 25.66 347.234 26.204 346.7 27.036C346.167 27.868 345.9 29.1587 345.9 30.908C345.9 32.636 346.039 33.9587 346.316 34.876C346.615 35.772 347.159 36.3907 347.948 36.732C348.759 37.052 349.911 37.212 351.404 37.212C351.596 37.212 351.895 37.212 352.3 37.212C352.706 37.1907 353.111 37.1693 353.516 37.148C353.922 37.1267 354.21 37.0947 354.38 37.052V35.228ZM367.029 41.212V34.94L360.469 21.052V20.956H366.069C366.731 22.684 367.253 24.0707 367.637 25.116C368.043 26.14 368.352 26.9507 368.565 27.548C368.8 28.124 368.981 28.5933 369.109 28.956C369.237 29.3187 369.376 29.7027 369.525 30.108H369.653C369.803 29.7027 369.941 29.3187 370.069 28.956C370.197 28.5933 370.368 28.124 370.581 27.548C370.816 26.9507 371.125 26.14 371.509 25.116C371.915 24.0707 372.448 22.684 373.109 20.956H378.709V21.052L372.149 34.94V41.212H367.029Z" fill="#BDFE8A"/>
</svg>
