<svg width="41" height="60" viewBox="0 0 41 60" fill="none" xmlns="http://www.w3.org/2000/svg">
<path d="M7.51618 32.9577C6.21127 31.6528 5.34721 30.1304 4.924 28.3906C4.51254 26.6624 4.54193 24.9284 5.01217 23.1886C5.50591 21.4487 6.43463 19.8969 7.79832 18.5332L19.1016 7.30043C20.4418 5.96026 21.9583 5.05505 23.6512 4.58481C25.3558 4.10282 27.0722 4.06755 28.8003 4.47901C30.5519 4.89047 32.0861 5.75453 33.4027 7.07119C34.7429 8.41137 35.6128 9.92788 36.0126 11.6207C36.424 13.3253 36.3887 15.0417 35.9067 16.7698C35.4483 18.498 34.5431 20.038 33.1911 21.3899L32.2054 22.589C32.1113 22.6831 32.0173 22.6831 31.9232 22.589L27.8674 18.5332C27.7734 18.4392 27.7734 18.3451 27.8674 18.2511L28.8532 17.052C29.6526 16.2526 30.0817 15.3062 30.1405 14.2129C30.1992 13.1196 29.8407 12.185 29.0648 11.4091C28.2066 10.5509 27.2544 10.1865 26.2081 10.3158C25.1618 10.4451 24.2507 10.8977 23.4749 11.6736L12.2068 22.9417C11.3251 23.8234 10.8607 24.805 10.8137 25.8866C10.7784 26.9563 11.1311 27.8616 11.8717 28.6022C12.6476 29.3781 13.5999 29.719 14.7284 29.6249C15.8688 29.5191 16.821 29.0842 17.5851 28.32L19.568 26.6568C19.6621 26.5627 19.7932 26.882 19.8872 26.976L23.6336 30.7359C23.7276 30.8299 23.7276 30.924 23.6336 31.018L21.9583 32.6932C20.6064 34.0452 19.0546 34.9621 17.303 35.4441C15.5514 35.9026 13.8115 35.9379 12.0834 35.5499C10.367 35.1502 8.8446 34.2862 7.51618 32.9577Z" fill="#BDFE8A"/>
<path d="M7.18508 52.9288C8.48998 54.2337 10.0124 55.0977 11.7523 55.521C13.4804 55.9324 15.2144 55.903 16.9543 55.4328C18.6941 54.939 20.2459 54.0103 21.6096 52.6466L32.8424 41.3433C34.1826 40.0031 35.0878 38.4866 35.558 36.7938C36.04 35.0891 36.0753 33.3728 35.6638 31.6447C35.2524 29.893 34.3883 28.3589 33.0716 27.0422C31.7315 25.702 30.2149 24.8321 28.5221 24.4324C26.8175 24.0209 25.1011 24.0562 23.373 24.5382C21.6449 24.9967 20.1048 25.9019 18.7529 27.2538L17.0953 28.9114C17.0013 29.0055 17.0013 29.0995 17.0953 29.1935L21.1511 33.2493C21.2452 33.3434 21.3392 33.3434 21.4333 33.2493L23.0908 31.5918C23.8902 30.7924 24.8366 30.3633 25.9299 30.3045C27.0232 30.2457 27.9578 30.6043 28.7337 31.3802C29.5919 32.2383 29.9563 33.1906 29.827 34.2368C29.6977 35.2831 29.2451 36.1942 28.4692 36.9701L17.2011 48.2382C16.3194 49.1198 15.3378 49.5842 14.2563 49.6312C13.1865 49.6665 12.2813 49.3138 11.5406 48.5732C10.7648 47.7973 10.4238 46.8451 10.5179 45.7165C10.6237 44.5762 11.0587 43.624 11.8228 42.8598L12.8646 41.6254C12.9586 41.5314 12.9586 41.4373 12.8646 41.3433L8.77354 37.2522C8.67949 37.1582 8.58544 37.1582 8.49139 37.2522L7.44958 38.4866C6.09765 39.8385 5.18069 41.3903 4.6987 43.142C4.24021 44.8936 4.20495 46.6335 4.59289 48.3616C4.99259 50.078 5.85666 51.6004 7.18508 52.9288Z" fill="#BDFE8A"/>
</svg>
